<svg xmlns="http://www.w3.org/2000/svg" xmlns:xlink="http://www.w3.org/1999/xlink" width="50" zoomAndPan="magnify" viewBox="0 0 37.5 37.499999" height="50" preserveAspectRatio="xMidYMid meet" version="1.0"><defs><clipPath id="cc9b7b8c03"><path d="M 0.609375 3.011719 L 36.609375 3.011719 L 36.609375 35.261719 L 0.609375 35.261719 Z M 0.609375 3.011719 " clip-rule="nonzero"/></clipPath><clipPath id="cec5938294"><path d="M 0.644531 2.351562 L 36.644531 2.351562 L 36.644531 36 L 0.644531 36 Z M 0.644531 2.351562 " clip-rule="nonzero"/></clipPath></defs><g clip-path="url(#cc9b7b8c03)"><path fill="#28292a" d="M 18.609375 35.253906 L 18.230469 34.992188 C 18.1875 34.964844 13.800781 31.9375 9.480469 27.75 C 6.933594 25.277344 4.894531 22.890625 3.425781 20.648438 C 1.5625 17.78125 0.609375 15.125 0.609375 12.765625 C 0.609375 7.394531 4.9375 3.023438 10.25 3.023438 C 12.222656 3.023438 14.132812 3.632812 15.757812 4.796875 C 16.941406 5.640625 17.90625 6.71875 18.609375 7.957031 C 19.316406 6.710938 20.28125 5.632812 21.460938 4.796875 C 23.089844 3.632812 24.996094 3.023438 26.96875 3.023438 C 32.285156 3.023438 36.609375 7.394531 36.609375 12.765625 L 36.609375 12.773438 C 36.589844 15.117188 35.632812 17.75 33.757812 20.613281 C 32.289062 22.851562 30.261719 25.242188 27.710938 27.722656 C 23.398438 31.921875 19.035156 34.964844 18.992188 34.992188 Z M 10.25 4.382812 C 5.679688 4.382812 1.957031 8.144531 1.957031 12.765625 C 1.957031 14.855469 2.828125 17.25 4.550781 19.882812 C 5.953125 22.039062 7.925781 24.351562 10.402344 26.753906 C 13.910156 30.152344 17.464844 32.78125 18.609375 33.59375 C 19.753906 32.773438 23.289062 30.132812 26.789062 26.726562 C 29.257812 24.316406 31.226562 22.007812 32.636719 19.855469 C 34.355469 17.21875 35.242188 14.839844 35.257812 12.765625 C 35.257812 8.144531 31.535156 4.390625 26.960938 4.390625 C 23.570312 4.390625 20.46875 6.558594 19.230469 9.789062 L 18.601562 11.433594 L 17.984375 9.789062 C 16.746094 6.558594 13.640625 4.382812 10.25 4.382812 Z M 10.25 4.382812 " fill-opacity="1" fill-rule="nonzero"/></g><g clip-path="url(#cec5938294)"><path fill="#28292a" d="M 18.644531 35.988281 L 16.035156 33.585938 C 6.765625 25.042969 0.644531 19.40625 0.644531 12.511719 C 0.644531 6.875 4.992188 2.464844 10.542969 2.464844 C 13.675781 2.464844 16.683594 3.941406 18.644531 6.273438 C 20.605469 3.941406 23.613281 2.464844 26.746094 2.464844 C 32.296875 2.464844 36.644531 6.875 36.644531 12.511719 C 36.644531 19.40625 30.523438 25.042969 21.253906 33.585938 Z M 18.644531 35.988281 " fill-opacity="1" fill-rule="nonzero"/></g></svg>