<svg xmlns="http://www.w3.org/2000/svg" xmlns:xlink="http://www.w3.org/1999/xlink" width="300" zoomAndPan="magnify" viewBox="0 0 224.87999 299.999988" height="400" preserveAspectRatio="xMidYMid meet" version="1.0"><defs><g/><clipPath id="e90a8a3ccb"><path d="M 174 144.746094 L 184.402344 144.746094 L 184.402344 155.148438 L 174 155.148438 Z M 174 144.746094 " clip-rule="nonzero"/></clipPath><clipPath id="1cac31d3cc"><path d="M 174 144.746094 L 184.402344 144.746094 L 184.402344 149.953125 L 174 149.953125 Z M 174 144.746094 " clip-rule="nonzero"/></clipPath><clipPath id="20a82896f2"><path d="M 184.402344 149.949219 C 184.402344 152.820312 182.074219 155.148438 179.203125 155.148438 C 176.328125 155.148438 174 152.820312 174 149.949219 C 174 147.078125 176.328125 144.746094 179.203125 144.746094 C 182.074219 144.746094 184.402344 147.078125 184.402344 149.949219 Z M 184.402344 149.949219 " clip-rule="nonzero"/></clipPath><clipPath id="c47e0c1e9a"><path d="M 174 149.371094 L 184.402344 149.371094 L 184.402344 150.527344 L 174 150.527344 Z M 174 149.371094 " clip-rule="nonzero"/></clipPath><clipPath id="b396182fce"><path d="M 184.402344 149.949219 C 184.402344 152.820312 182.074219 155.148438 179.203125 155.148438 C 176.328125 155.148438 174 152.820312 174 149.949219 C 174 147.078125 176.328125 144.746094 179.203125 144.746094 C 182.074219 144.746094 184.402344 147.078125 184.402344 149.949219 Z M 184.402344 149.949219 " clip-rule="nonzero"/></clipPath><clipPath id="7393efab6d"><path d="M 176.820312 147.566406 L 181.585938 147.566406 L 181.585938 152.332031 L 176.820312 152.332031 Z M 176.820312 147.566406 " clip-rule="nonzero"/></clipPath><clipPath id="2469285446"><path d="M 184.402344 149.949219 C 184.402344 152.820312 182.074219 155.148438 179.203125 155.148438 C 176.328125 155.148438 174 152.820312 174 149.949219 C 174 147.078125 176.328125 144.746094 179.203125 144.746094 C 182.074219 144.746094 184.402344 147.078125 184.402344 149.949219 Z M 184.402344 149.949219 " clip-rule="nonzero"/></clipPath><clipPath id="e77e8c152e"><path d="M 177.882812 148.632812 L 180.519531 148.632812 L 180.519531 151.265625 L 177.882812 151.265625 Z M 177.882812 148.632812 " clip-rule="nonzero"/></clipPath><clipPath id="bc9dcfcc24"><path d="M 184.402344 149.949219 C 184.402344 152.820312 182.074219 155.148438 179.203125 155.148438 C 176.328125 155.148438 174 152.820312 174 149.949219 C 174 147.078125 176.328125 144.746094 179.203125 144.746094 C 182.074219 144.746094 184.402344 147.078125 184.402344 149.949219 Z M 184.402344 149.949219 " clip-rule="nonzero"/></clipPath><clipPath id="789642d0ff"><path d="M 189.933594 143.148438 L 200.335938 143.148438 L 200.335938 153.550781 L 189.933594 153.550781 Z M 189.933594 143.148438 " clip-rule="nonzero"/></clipPath><clipPath id="6c6b2fbae0"><path d="M 189.933594 143.148438 L 200.335938 143.148438 L 200.335938 148.351562 L 189.933594 148.351562 Z M 189.933594 143.148438 " clip-rule="nonzero"/></clipPath><clipPath id="40a3882229"><path d="M 200.335938 148.347656 C 200.335938 151.222656 198.007812 153.550781 195.136719 153.550781 C 192.261719 153.550781 189.933594 151.222656 189.933594 148.347656 C 189.933594 145.476562 192.261719 143.148438 195.136719 143.148438 C 198.007812 143.148438 200.335938 145.476562 200.335938 148.347656 Z M 200.335938 148.347656 " clip-rule="nonzero"/></clipPath><clipPath id="c080160e75"><path d="M 189.933594 147.773438 L 200.335938 147.773438 L 200.335938 148.925781 L 189.933594 148.925781 Z M 189.933594 147.773438 " clip-rule="nonzero"/></clipPath><clipPath id="0990e5b4ab"><path d="M 200.335938 148.347656 C 200.335938 151.222656 198.007812 153.550781 195.136719 153.550781 C 192.261719 153.550781 189.933594 151.222656 189.933594 148.347656 C 189.933594 145.476562 192.261719 143.148438 195.136719 143.148438 C 198.007812 143.148438 200.335938 145.476562 200.335938 148.347656 Z M 200.335938 148.347656 " clip-rule="nonzero"/></clipPath><clipPath id="33b71051b2"><path d="M 192.753906 145.964844 L 197.519531 145.964844 L 197.519531 150.730469 L 192.753906 150.730469 Z M 192.753906 145.964844 " clip-rule="nonzero"/></clipPath><clipPath id="bcf1e6e339"><path d="M 200.335938 148.347656 C 200.335938 151.222656 198.007812 153.550781 195.136719 153.550781 C 192.261719 153.550781 189.933594 151.222656 189.933594 148.347656 C 189.933594 145.476562 192.261719 143.148438 195.136719 143.148438 C 198.007812 143.148438 200.335938 145.476562 200.335938 148.347656 Z M 200.335938 148.347656 " clip-rule="nonzero"/></clipPath><clipPath id="88320d841f"><path d="M 193.816406 147.03125 L 196.453125 147.03125 L 196.453125 149.667969 L 193.816406 149.667969 Z M 193.816406 147.03125 " clip-rule="nonzero"/></clipPath><clipPath id="de3b33436d"><path d="M 200.335938 148.347656 C 200.335938 151.222656 198.007812 153.550781 195.136719 153.550781 C 192.261719 153.550781 189.933594 151.222656 189.933594 148.347656 C 189.933594 145.476562 192.261719 143.148438 195.136719 143.148438 C 198.007812 143.148438 200.335938 145.476562 200.335938 148.347656 Z M 200.335938 148.347656 " clip-rule="nonzero"/></clipPath><clipPath id="643f7ff431"><path d="M 205.867188 144.746094 L 216.269531 144.746094 L 216.269531 155.148438 L 205.867188 155.148438 Z M 205.867188 144.746094 " clip-rule="nonzero"/></clipPath><clipPath id="a1df8335b9"><path d="M 205.867188 144.746094 L 216.269531 144.746094 L 216.269531 149.953125 L 205.867188 149.953125 Z M 205.867188 144.746094 " clip-rule="nonzero"/></clipPath><clipPath id="64c17576c6"><path d="M 216.269531 149.949219 C 216.269531 152.820312 213.941406 155.148438 211.070312 155.148438 C 208.195312 155.148438 205.867188 152.820312 205.867188 149.949219 C 205.867188 147.078125 208.195312 144.746094 211.070312 144.746094 C 213.941406 144.746094 216.269531 147.078125 216.269531 149.949219 Z M 216.269531 149.949219 " clip-rule="nonzero"/></clipPath><clipPath id="2b0aad05b0"><path d="M 205.867188 149.371094 L 216.269531 149.371094 L 216.269531 150.527344 L 205.867188 150.527344 Z M 205.867188 149.371094 " clip-rule="nonzero"/></clipPath><clipPath id="a46a6de431"><path d="M 216.269531 149.949219 C 216.269531 152.820312 213.941406 155.148438 211.070312 155.148438 C 208.195312 155.148438 205.867188 152.820312 205.867188 149.949219 C 205.867188 147.078125 208.195312 144.746094 211.070312 144.746094 C 213.941406 144.746094 216.269531 147.078125 216.269531 149.949219 Z M 216.269531 149.949219 " clip-rule="nonzero"/></clipPath><clipPath id="153410cd1c"><path d="M 208.6875 147.566406 L 213.453125 147.566406 L 213.453125 152.332031 L 208.6875 152.332031 Z M 208.6875 147.566406 " clip-rule="nonzero"/></clipPath><clipPath id="4d04f8820d"><path d="M 216.269531 149.949219 C 216.269531 152.820312 213.941406 155.148438 211.070312 155.148438 C 208.195312 155.148438 205.867188 152.820312 205.867188 149.949219 C 205.867188 147.078125 208.195312 144.746094 211.070312 144.746094 C 213.941406 144.746094 216.269531 147.078125 216.269531 149.949219 Z M 216.269531 149.949219 " clip-rule="nonzero"/></clipPath><clipPath id="39267bfbeb"><path d="M 209.75 148.632812 L 212.386719 148.632812 L 212.386719 151.265625 L 209.75 151.265625 Z M 209.75 148.632812 " clip-rule="nonzero"/></clipPath><clipPath id="7a64e586b1"><path d="M 216.269531 149.949219 C 216.269531 152.820312 213.941406 155.148438 211.070312 155.148438 C 208.195312 155.148438 205.867188 152.820312 205.867188 149.949219 C 205.867188 147.078125 208.195312 144.746094 211.070312 144.746094 C 213.941406 144.746094 216.269531 147.078125 216.269531 149.949219 Z M 216.269531 149.949219 " clip-rule="nonzero"/></clipPath><clipPath id="1fe8e3b400"><path d="M 29.320312 122.777344 L 58.925781 122.777344 L 58.925781 152.382812 L 29.320312 152.382812 Z M 29.320312 122.777344 " clip-rule="nonzero"/></clipPath><clipPath id="ee9dd782f8"><path d="M 29.320312 122.777344 L 58.925781 122.777344 L 58.925781 137.589844 L 29.320312 137.589844 Z M 29.320312 122.777344 " clip-rule="nonzero"/></clipPath><clipPath id="98eadcec5a"><path d="M 58.925781 137.578125 C 58.925781 145.753906 52.300781 152.382812 44.125 152.382812 C 35.949219 152.382812 29.320312 145.753906 29.320312 137.578125 C 29.320312 129.402344 35.949219 122.777344 44.125 122.777344 C 52.300781 122.777344 58.925781 129.402344 58.925781 137.578125 Z M 58.925781 137.578125 " clip-rule="nonzero"/></clipPath><clipPath id="6828ee50c3"><path d="M 29.320312 135.941406 L 58.925781 135.941406 L 58.925781 139.222656 L 29.320312 139.222656 Z M 29.320312 135.941406 " clip-rule="nonzero"/></clipPath><clipPath id="5be3d98023"><path d="M 58.925781 137.578125 C 58.925781 145.753906 52.300781 152.382812 44.125 152.382812 C 35.949219 152.382812 29.320312 145.753906 29.320312 137.578125 C 29.320312 129.402344 35.949219 122.777344 44.125 122.777344 C 52.300781 122.777344 58.925781 129.402344 58.925781 137.578125 Z M 58.925781 137.578125 " clip-rule="nonzero"/></clipPath><clipPath id="6065589905"><path d="M 37.339844 130.796875 L 50.90625 130.796875 L 50.90625 144.363281 L 37.339844 144.363281 Z M 37.339844 130.796875 " clip-rule="nonzero"/></clipPath><clipPath id="ff88575b95"><path d="M 58.925781 137.578125 C 58.925781 145.753906 52.300781 152.382812 44.125 152.382812 C 35.949219 152.382812 29.320312 145.753906 29.320312 137.578125 C 29.320312 129.402344 35.949219 122.777344 44.125 122.777344 C 52.300781 122.777344 58.925781 129.402344 58.925781 137.578125 Z M 58.925781 137.578125 " clip-rule="nonzero"/></clipPath><clipPath id="f609ad23d9"><path d="M 40.375 133.828125 L 47.875 133.828125 L 47.875 141.332031 L 40.375 141.332031 Z M 40.375 133.828125 " clip-rule="nonzero"/></clipPath><clipPath id="346b89b98a"><path d="M 58.925781 137.578125 C 58.925781 145.753906 52.300781 152.382812 44.125 152.382812 C 35.949219 152.382812 29.320312 145.753906 29.320312 137.578125 C 29.320312 129.402344 35.949219 122.777344 44.125 122.777344 C 52.300781 122.777344 58.925781 129.402344 58.925781 137.578125 Z M 58.925781 137.578125 " clip-rule="nonzero"/></clipPath></defs><g fill="#28292a" fill-opacity="0.302"><g transform="translate(10.589602, 148.958307)"><g><path d="M 7.671875 -1.921875 L 23.046875 -1.203125 L 22.921875 5.15625 L 1.546875 4.09375 L 0.234375 -21.359375 L -1.921875 -20.875 L -1.203125 -24.484375 L 6.234375 -27.59375 Z M 7.671875 -1.921875 "/></g></g></g><g fill="#28292a" fill-opacity="0.302"><g transform="translate(31.55858, 148.958307)"><g><path d="M 20.40625 -21.953125 C 22.71875 -20.191406 23.875 -17.835938 23.875 -14.890625 C 23.875 -13.867188 23.726562 -12.816406 23.4375 -11.734375 C 23.15625 -10.660156 22.753906 -9.628906 22.234375 -8.640625 C 21.710938 -7.648438 21.140625 -6.769531 20.515625 -6 C 19.492188 -4.738281 18.484375 -3.671875 17.484375 -2.796875 C 16.484375 -1.929688 15.472656 -1.226562 14.453125 -0.6875 C 13.441406 -0.144531 12.460938 0.242188 11.515625 0.484375 C 10.566406 0.734375 9.640625 0.859375 8.734375 0.859375 C 6.617188 0.859375 4.707031 0.296875 3 -0.828125 C 1.851562 -1.609375 0.898438 -2.828125 0.140625 -4.484375 C -0.617188 -6.148438 -1 -7.9375 -1 -9.84375 C -1 -12.894531 -0.0234375 -15.53125 1.921875 -17.75 C 3.066406 -19.0625 4.265625 -20.222656 5.515625 -21.234375 C 6.773438 -22.253906 8.078125 -23.050781 9.421875 -23.625 C 10.773438 -24.207031 12.15625 -24.5 13.5625 -24.5 C 15.875 -24.5 18.15625 -23.648438 20.40625 -21.953125 Z M 17.515625 -18.171875 C 17.328125 -17.078125 16.929688 -16.175781 16.328125 -15.46875 C 15.734375 -14.757812 15.117188 -14.40625 14.484375 -14.40625 C 14.085938 -14.40625 13.742188 -14.554688 13.453125 -14.859375 C 13.296875 -15.015625 13.164062 -15.25 13.0625 -15.5625 C 12.957031 -15.875 12.90625 -16.175781 12.90625 -16.46875 C 12.90625 -17.0625 13.082031 -17.648438 13.4375 -18.234375 C 13.789062 -18.816406 14.359375 -19.320312 15.140625 -19.75 C 14.203125 -19.75 13.40625 -19.53125 12.75 -19.09375 C 12.09375 -18.65625 11.609375 -18.097656 11.296875 -17.421875 C 10.984375 -16.753906 10.828125 -16.0625 10.828125 -15.34375 C 10.828125 -14.207031 11.160156 -13.375 11.828125 -12.84375 C 12.617188 -12.195312 13.414062 -11.875 14.21875 -11.875 C 15.207031 -11.875 16.035156 -12.3125 16.703125 -13.1875 C 17.378906 -14.070312 17.71875 -15.164062 17.71875 -16.46875 C 17.71875 -17.070312 17.648438 -17.640625 17.515625 -18.171875 Z M 17.515625 -18.171875 "/></g></g></g><g fill="#28292a" fill-opacity="0.302"><g transform="translate(58.534711, 148.958307)"><g><path d="M 9.359375 -27 L 23.765625 7.671875 L 17.640625 8.28125 L 10.796875 -7.671875 L 6.953125 -8.28125 L 0.96875 4.4375 L -6.609375 4.8125 Z M 7.203125 -11.765625 L 10.671875 -11.28125 L 9.25 -16.921875 Z M 7.203125 -11.765625 "/></g></g></g><g fill="#28292a" fill-opacity="0.302"><g transform="translate(79.503686, 148.958307)"><g><path d="M 12.84375 -20.046875 C 12.03125 -20.328125 11.382812 -20.46875 10.90625 -20.46875 C 10.25 -20.46875 9.613281 -20.25 9 -19.8125 L 9.734375 -6.46875 C 11.378906 -7.1875 12.476562 -7.894531 13.03125 -8.59375 C 13.582031 -9.289062 13.914062 -9.867188 14.03125 -10.328125 C 14.132812 -10.546875 14.234375 -11.078125 14.328125 -11.921875 C 14.429688 -12.773438 14.484375 -13.722656 14.484375 -14.765625 C 14.484375 -16.128906 14.359375 -17.296875 14.109375 -18.265625 C 13.859375 -19.242188 13.4375 -19.835938 12.84375 -20.046875 Z M 18.609375 -22.671875 C 19.066406 -21.753906 19.445312 -20.804688 19.75 -19.828125 C 20.0625 -18.847656 20.285156 -17.867188 20.421875 -16.890625 C 20.566406 -15.910156 20.640625 -14.945312 20.640625 -14 C 20.640625 -12.300781 20.410156 -10.671875 19.953125 -9.109375 C 19.503906 -7.546875 18.851562 -6.144531 18 -4.90625 C 17.15625 -3.675781 16.128906 -2.675781 14.921875 -1.90625 C 13.710938 -1.132812 12.375 -0.660156 10.90625 -0.484375 L 4.8125 0.59375 L 2.75 -18.234375 C 2.6875 -18.234375 2.445312 -17.972656 2.03125 -17.453125 C 1.625 -16.941406 1.382812 -16.6875 1.3125 -16.6875 C 1.101562 -16.832031 0.914062 -17.242188 0.75 -17.921875 C 0.59375 -18.609375 0.363281 -19.675781 0.0625 -21.125 C -0.226562 -22.570312 -0.445312 -23.453125 -0.59375 -23.765625 C 1.65625 -24.492188 3.773438 -25.082031 5.765625 -25.53125 C 7.765625 -25.988281 9.625 -26.21875 11.34375 -26.21875 C 15.03125 -26.21875 17.453125 -25.035156 18.609375 -22.671875 Z M 18.609375 -22.671875 "/></g></g></g><g fill="#28292a" fill-opacity="0.302"><g transform="translate(103.476243, 148.958307)"><g><path d="M 9.59375 -6.71875 L 17.03125 -6.609375 L 16.921875 -0.234375 L -0.71875 -0.234375 L 0 -5.875 L 4.09375 -6 L 4.671875 -18.71875 L -1.6875 -17.640625 L -1.3125 -24.59375 L 16.4375 -27.25 L 16.796875 -20.875 L 10.671875 -19.671875 Z M 9.59375 -6.71875 "/></g></g></g><g fill="#28292a" fill-opacity="0.302"><g transform="translate(124.445225, 148.958307)"><g><path d="M 6.234375 -27.59375 L 10.078125 -17.890625 L 9.25 -26.765625 L 18.359375 -26.390625 L 18.609375 6.46875 L 13.203125 6.84375 L 7.671875 -8.765625 L 7.796875 4.09375 L 0.828125 4.203125 L 0 -23.875 L -2.515625 -24.484375 L -2.640625 -28.203125 Z M 6.234375 -27.59375 "/></g></g></g><g fill="#28292a" fill-opacity="0.302"><g transform="translate(145.414206, 148.958307)"><g><path d="M 11.046875 -8.875 L 9.96875 -9.359375 L 11.640625 -13.203125 L 19.921875 -10.078125 L 18 6.125 L 10.5625 5.515625 C 10.820312 4.722656 11.191406 3.582031 11.671875 2.09375 C 12.148438 0.601562 12.457031 -0.367188 12.59375 -0.828125 C 11.957031 -0.515625 10.679688 -0.359375 8.765625 -0.359375 C 6.910156 -0.359375 5.28125 -0.707031 3.875 -1.40625 C 2.476562 -2.113281 1.332031 -3.3125 0.4375 -5 C -0.457031 -6.695312 -1.003906 -8.988281 -1.203125 -11.875 C -1.222656 -12.164062 -1.234375 -12.597656 -1.234375 -13.171875 C -1.234375 -14.617188 -1.0625 -16.003906 -0.71875 -17.328125 C -0.382812 -18.660156 0.160156 -19.859375 0.921875 -20.921875 C 1.691406 -21.992188 2.75 -22.863281 4.09375 -23.53125 C 5.445312 -24.207031 7.082031 -24.5625 9 -24.59375 C 10.269531 -24.59375 11.519531 -24.441406 12.75 -24.140625 C 13.976562 -23.847656 15.101562 -23.4375 16.125 -22.90625 C 17.15625 -22.375 18.035156 -21.722656 18.765625 -20.953125 C 19.503906 -20.191406 19.988281 -19.367188 20.21875 -18.484375 L 13.65625 -14.1875 C 13.21875 -15.28125 11.75 -15.828125 9.25 -15.828125 C 8.675781 -15.828125 8.09375 -15.421875 7.5 -14.609375 C 6.90625 -13.804688 6.609375 -12.894531 6.609375 -11.875 C 6.660156 -11.101562 6.890625 -10.363281 7.296875 -9.65625 C 7.703125 -8.945312 8.429688 -8.570312 9.484375 -8.53125 C 9.566406 -8.53125 9.71875 -8.554688 9.9375 -8.609375 C 10.15625 -8.660156 10.347656 -8.707031 10.515625 -8.75 C 10.691406 -8.789062 10.867188 -8.832031 11.046875 -8.875 Z M 11.046875 -8.875 "/></g></g></g><g fill="#28292a" fill-opacity="0.502"><g transform="translate(11.383766, 149.295415)"><g><path d="M 7.671875 -1.921875 L 23.046875 -1.203125 L 22.921875 5.15625 L 1.546875 4.09375 L 0.234375 -21.359375 L -1.921875 -20.875 L -1.203125 -24.484375 L 6.234375 -27.59375 Z M 7.671875 -1.921875 "/></g></g></g><g fill="#28292a" fill-opacity="0.502"><g transform="translate(32.352744, 149.295415)"><g><path d="M 20.40625 -21.953125 C 22.71875 -20.191406 23.875 -17.835938 23.875 -14.890625 C 23.875 -13.867188 23.726562 -12.816406 23.4375 -11.734375 C 23.15625 -10.660156 22.753906 -9.628906 22.234375 -8.640625 C 21.710938 -7.648438 21.140625 -6.769531 20.515625 -6 C 19.492188 -4.738281 18.484375 -3.671875 17.484375 -2.796875 C 16.484375 -1.929688 15.472656 -1.226562 14.453125 -0.6875 C 13.441406 -0.144531 12.460938 0.242188 11.515625 0.484375 C 10.566406 0.734375 9.640625 0.859375 8.734375 0.859375 C 6.617188 0.859375 4.707031 0.296875 3 -0.828125 C 1.851562 -1.609375 0.898438 -2.828125 0.140625 -4.484375 C -0.617188 -6.148438 -1 -7.9375 -1 -9.84375 C -1 -12.894531 -0.0234375 -15.53125 1.921875 -17.75 C 3.066406 -19.0625 4.265625 -20.222656 5.515625 -21.234375 C 6.773438 -22.253906 8.078125 -23.050781 9.421875 -23.625 C 10.773438 -24.207031 12.15625 -24.5 13.5625 -24.5 C 15.875 -24.5 18.15625 -23.648438 20.40625 -21.953125 Z M 17.515625 -18.171875 C 17.328125 -17.078125 16.929688 -16.175781 16.328125 -15.46875 C 15.734375 -14.757812 15.117188 -14.40625 14.484375 -14.40625 C 14.085938 -14.40625 13.742188 -14.554688 13.453125 -14.859375 C 13.296875 -15.015625 13.164062 -15.25 13.0625 -15.5625 C 12.957031 -15.875 12.90625 -16.175781 12.90625 -16.46875 C 12.90625 -17.0625 13.082031 -17.648438 13.4375 -18.234375 C 13.789062 -18.816406 14.359375 -19.320312 15.140625 -19.75 C 14.203125 -19.75 13.40625 -19.53125 12.75 -19.09375 C 12.09375 -18.65625 11.609375 -18.097656 11.296875 -17.421875 C 10.984375 -16.753906 10.828125 -16.0625 10.828125 -15.34375 C 10.828125 -14.207031 11.160156 -13.375 11.828125 -12.84375 C 12.617188 -12.195312 13.414062 -11.875 14.21875 -11.875 C 15.207031 -11.875 16.035156 -12.3125 16.703125 -13.1875 C 17.378906 -14.070312 17.71875 -15.164062 17.71875 -16.46875 C 17.71875 -17.070312 17.648438 -17.640625 17.515625 -18.171875 Z M 17.515625 -18.171875 "/></g></g></g><g fill="#28292a" fill-opacity="0.502"><g transform="translate(59.328875, 149.295415)"><g><path d="M 9.359375 -27 L 23.765625 7.671875 L 17.640625 8.28125 L 10.796875 -7.671875 L 6.953125 -8.28125 L 0.96875 4.4375 L -6.609375 4.8125 Z M 7.203125 -11.765625 L 10.671875 -11.28125 L 9.25 -16.921875 Z M 7.203125 -11.765625 "/></g></g></g><g fill="#28292a" fill-opacity="0.502"><g transform="translate(80.29785, 149.295415)"><g><path d="M 12.84375 -20.046875 C 12.03125 -20.328125 11.382812 -20.46875 10.90625 -20.46875 C 10.25 -20.46875 9.613281 -20.25 9 -19.8125 L 9.734375 -6.46875 C 11.378906 -7.1875 12.476562 -7.894531 13.03125 -8.59375 C 13.582031 -9.289062 13.914062 -9.867188 14.03125 -10.328125 C 14.132812 -10.546875 14.234375 -11.078125 14.328125 -11.921875 C 14.429688 -12.773438 14.484375 -13.722656 14.484375 -14.765625 C 14.484375 -16.128906 14.359375 -17.296875 14.109375 -18.265625 C 13.859375 -19.242188 13.4375 -19.835938 12.84375 -20.046875 Z M 18.609375 -22.671875 C 19.066406 -21.753906 19.445312 -20.804688 19.75 -19.828125 C 20.0625 -18.847656 20.285156 -17.867188 20.421875 -16.890625 C 20.566406 -15.910156 20.640625 -14.945312 20.640625 -14 C 20.640625 -12.300781 20.410156 -10.671875 19.953125 -9.109375 C 19.503906 -7.546875 18.851562 -6.144531 18 -4.90625 C 17.15625 -3.675781 16.128906 -2.675781 14.921875 -1.90625 C 13.710938 -1.132812 12.375 -0.660156 10.90625 -0.484375 L 4.8125 0.59375 L 2.75 -18.234375 C 2.6875 -18.234375 2.445312 -17.972656 2.03125 -17.453125 C 1.625 -16.941406 1.382812 -16.6875 1.3125 -16.6875 C 1.101562 -16.832031 0.914062 -17.242188 0.75 -17.921875 C 0.59375 -18.609375 0.363281 -19.675781 0.0625 -21.125 C -0.226562 -22.570312 -0.445312 -23.453125 -0.59375 -23.765625 C 1.65625 -24.492188 3.773438 -25.082031 5.765625 -25.53125 C 7.765625 -25.988281 9.625 -26.21875 11.34375 -26.21875 C 15.03125 -26.21875 17.453125 -25.035156 18.609375 -22.671875 Z M 18.609375 -22.671875 "/></g></g></g><g fill="#28292a" fill-opacity="0.502"><g transform="translate(104.270407, 149.295415)"><g><path d="M 9.59375 -6.71875 L 17.03125 -6.609375 L 16.921875 -0.234375 L -0.71875 -0.234375 L 0 -5.875 L 4.09375 -6 L 4.671875 -18.71875 L -1.6875 -17.640625 L -1.3125 -24.59375 L 16.4375 -27.25 L 16.796875 -20.875 L 10.671875 -19.671875 Z M 9.59375 -6.71875 "/></g></g></g><g fill="#28292a" fill-opacity="0.502"><g transform="translate(125.239389, 149.295415)"><g><path d="M 6.234375 -27.59375 L 10.078125 -17.890625 L 9.25 -26.765625 L 18.359375 -26.390625 L 18.609375 6.46875 L 13.203125 6.84375 L 7.671875 -8.765625 L 7.796875 4.09375 L 0.828125 4.203125 L 0 -23.875 L -2.515625 -24.484375 L -2.640625 -28.203125 Z M 6.234375 -27.59375 "/></g></g></g><g fill="#28292a" fill-opacity="0.502"><g transform="translate(146.20837, 149.295415)"><g><path d="M 11.046875 -8.875 L 9.96875 -9.359375 L 11.640625 -13.203125 L 19.921875 -10.078125 L 18 6.125 L 10.5625 5.515625 C 10.820312 4.722656 11.191406 3.582031 11.671875 2.09375 C 12.148438 0.601562 12.457031 -0.367188 12.59375 -0.828125 C 11.957031 -0.515625 10.679688 -0.359375 8.765625 -0.359375 C 6.910156 -0.359375 5.28125 -0.707031 3.875 -1.40625 C 2.476562 -2.113281 1.332031 -3.3125 0.4375 -5 C -0.457031 -6.695312 -1.003906 -8.988281 -1.203125 -11.875 C -1.222656 -12.164062 -1.234375 -12.597656 -1.234375 -13.171875 C -1.234375 -14.617188 -1.0625 -16.003906 -0.71875 -17.328125 C -0.382812 -18.660156 0.160156 -19.859375 0.921875 -20.921875 C 1.691406 -21.992188 2.75 -22.863281 4.09375 -23.53125 C 5.445312 -24.207031 7.082031 -24.5625 9 -24.59375 C 10.269531 -24.59375 11.519531 -24.441406 12.75 -24.140625 C 13.976562 -23.847656 15.101562 -23.4375 16.125 -22.90625 C 17.15625 -22.375 18.035156 -21.722656 18.765625 -20.953125 C 19.503906 -20.191406 19.988281 -19.367188 20.21875 -18.484375 L 13.65625 -14.1875 C 13.21875 -15.28125 11.75 -15.828125 9.25 -15.828125 C 8.675781 -15.828125 8.09375 -15.421875 7.5 -14.609375 C 6.90625 -13.804688 6.609375 -12.894531 6.609375 -11.875 C 6.660156 -11.101562 6.890625 -10.363281 7.296875 -9.65625 C 7.703125 -8.945312 8.429688 -8.570312 9.484375 -8.53125 C 9.566406 -8.53125 9.71875 -8.554688 9.9375 -8.609375 C 10.15625 -8.660156 10.347656 -8.707031 10.515625 -8.75 C 10.691406 -8.789062 10.867188 -8.832031 11.046875 -8.875 Z M 11.046875 -8.875 "/></g></g></g><g fill="#ed2e49" fill-opacity="1"><g transform="translate(12.17793, 149.632515)"><g><path d="M 7.671875 -1.921875 L 23.046875 -1.203125 L 22.921875 5.15625 L 1.546875 4.09375 L 0.234375 -21.359375 L -1.921875 -20.875 L -1.203125 -24.484375 L 6.234375 -27.59375 Z M 7.671875 -1.921875 "/></g></g></g><g fill="#ed2e49" fill-opacity="1"><g transform="translate(33.146908, 149.632515)"><g><path d="M 20.40625 -21.953125 C 22.71875 -20.191406 23.875 -17.835938 23.875 -14.890625 C 23.875 -13.867188 23.726562 -12.816406 23.4375 -11.734375 C 23.15625 -10.660156 22.753906 -9.628906 22.234375 -8.640625 C 21.710938 -7.648438 21.140625 -6.769531 20.515625 -6 C 19.492188 -4.738281 18.484375 -3.671875 17.484375 -2.796875 C 16.484375 -1.929688 15.472656 -1.226562 14.453125 -0.6875 C 13.441406 -0.144531 12.460938 0.242188 11.515625 0.484375 C 10.566406 0.734375 9.640625 0.859375 8.734375 0.859375 C 6.617188 0.859375 4.707031 0.296875 3 -0.828125 C 1.851562 -1.609375 0.898438 -2.828125 0.140625 -4.484375 C -0.617188 -6.148438 -1 -7.9375 -1 -9.84375 C -1 -12.894531 -0.0234375 -15.53125 1.921875 -17.75 C 3.066406 -19.0625 4.265625 -20.222656 5.515625 -21.234375 C 6.773438 -22.253906 8.078125 -23.050781 9.421875 -23.625 C 10.773438 -24.207031 12.15625 -24.5 13.5625 -24.5 C 15.875 -24.5 18.15625 -23.648438 20.40625 -21.953125 Z M 17.515625 -18.171875 C 17.328125 -17.078125 16.929688 -16.175781 16.328125 -15.46875 C 15.734375 -14.757812 15.117188 -14.40625 14.484375 -14.40625 C 14.085938 -14.40625 13.742188 -14.554688 13.453125 -14.859375 C 13.296875 -15.015625 13.164062 -15.25 13.0625 -15.5625 C 12.957031 -15.875 12.90625 -16.175781 12.90625 -16.46875 C 12.90625 -17.0625 13.082031 -17.648438 13.4375 -18.234375 C 13.789062 -18.816406 14.359375 -19.320312 15.140625 -19.75 C 14.203125 -19.75 13.40625 -19.53125 12.75 -19.09375 C 12.09375 -18.65625 11.609375 -18.097656 11.296875 -17.421875 C 10.984375 -16.753906 10.828125 -16.0625 10.828125 -15.34375 C 10.828125 -14.207031 11.160156 -13.375 11.828125 -12.84375 C 12.617188 -12.195312 13.414062 -11.875 14.21875 -11.875 C 15.207031 -11.875 16.035156 -12.3125 16.703125 -13.1875 C 17.378906 -14.070312 17.71875 -15.164062 17.71875 -16.46875 C 17.71875 -17.070312 17.648438 -17.640625 17.515625 -18.171875 Z M 17.515625 -18.171875 "/></g></g></g><g fill="#ed2e49" fill-opacity="1"><g transform="translate(60.123038, 149.632515)"><g><path d="M 9.359375 -27 L 23.765625 7.671875 L 17.640625 8.28125 L 10.796875 -7.671875 L 6.953125 -8.28125 L 0.96875 4.4375 L -6.609375 4.8125 Z M 7.203125 -11.765625 L 10.671875 -11.28125 L 9.25 -16.921875 Z M 7.203125 -11.765625 "/></g></g></g><g fill="#ed2e49" fill-opacity="1"><g transform="translate(81.092013, 149.632515)"><g><path d="M 12.84375 -20.046875 C 12.03125 -20.328125 11.382812 -20.46875 10.90625 -20.46875 C 10.25 -20.46875 9.613281 -20.25 9 -19.8125 L 9.734375 -6.46875 C 11.378906 -7.1875 12.476562 -7.894531 13.03125 -8.59375 C 13.582031 -9.289062 13.914062 -9.867188 14.03125 -10.328125 C 14.132812 -10.546875 14.234375 -11.078125 14.328125 -11.921875 C 14.429688 -12.773438 14.484375 -13.722656 14.484375 -14.765625 C 14.484375 -16.128906 14.359375 -17.296875 14.109375 -18.265625 C 13.859375 -19.242188 13.4375 -19.835938 12.84375 -20.046875 Z M 18.609375 -22.671875 C 19.066406 -21.753906 19.445312 -20.804688 19.75 -19.828125 C 20.0625 -18.847656 20.285156 -17.867188 20.421875 -16.890625 C 20.566406 -15.910156 20.640625 -14.945312 20.640625 -14 C 20.640625 -12.300781 20.410156 -10.671875 19.953125 -9.109375 C 19.503906 -7.546875 18.851562 -6.144531 18 -4.90625 C 17.15625 -3.675781 16.128906 -2.675781 14.921875 -1.90625 C 13.710938 -1.132812 12.375 -0.660156 10.90625 -0.484375 L 4.8125 0.59375 L 2.75 -18.234375 C 2.6875 -18.234375 2.445312 -17.972656 2.03125 -17.453125 C 1.625 -16.941406 1.382812 -16.6875 1.3125 -16.6875 C 1.101562 -16.832031 0.914062 -17.242188 0.75 -17.921875 C 0.59375 -18.609375 0.363281 -19.675781 0.0625 -21.125 C -0.226562 -22.570312 -0.445312 -23.453125 -0.59375 -23.765625 C 1.65625 -24.492188 3.773438 -25.082031 5.765625 -25.53125 C 7.765625 -25.988281 9.625 -26.21875 11.34375 -26.21875 C 15.03125 -26.21875 17.453125 -25.035156 18.609375 -22.671875 Z M 18.609375 -22.671875 "/></g></g></g><g fill="#ed2e49" fill-opacity="1"><g transform="translate(105.064571, 149.632515)"><g><path d="M 9.59375 -6.71875 L 17.03125 -6.609375 L 16.921875 -0.234375 L -0.71875 -0.234375 L 0 -5.875 L 4.09375 -6 L 4.671875 -18.71875 L -1.6875 -17.640625 L -1.3125 -24.59375 L 16.4375 -27.25 L 16.796875 -20.875 L 10.671875 -19.671875 Z M 9.59375 -6.71875 "/></g></g></g><g fill="#ed2e49" fill-opacity="1"><g transform="translate(126.033552, 149.632515)"><g><path d="M 6.234375 -27.59375 L 10.078125 -17.890625 L 9.25 -26.765625 L 18.359375 -26.390625 L 18.609375 6.46875 L 13.203125 6.84375 L 7.671875 -8.765625 L 7.796875 4.09375 L 0.828125 4.203125 L 0 -23.875 L -2.515625 -24.484375 L -2.640625 -28.203125 Z M 6.234375 -27.59375 "/></g></g></g><g fill="#ed2e49" fill-opacity="1"><g transform="translate(147.002533, 149.632515)"><g><path d="M 11.046875 -8.875 L 9.96875 -9.359375 L 11.640625 -13.203125 L 19.921875 -10.078125 L 18 6.125 L 10.5625 5.515625 C 10.820312 4.722656 11.191406 3.582031 11.671875 2.09375 C 12.148438 0.601562 12.457031 -0.367188 12.59375 -0.828125 C 11.957031 -0.515625 10.679688 -0.359375 8.765625 -0.359375 C 6.910156 -0.359375 5.28125 -0.707031 3.875 -1.40625 C 2.476562 -2.113281 1.332031 -3.3125 0.4375 -5 C -0.457031 -6.695312 -1.003906 -8.988281 -1.203125 -11.875 C -1.222656 -12.164062 -1.234375 -12.597656 -1.234375 -13.171875 C -1.234375 -14.617188 -1.0625 -16.003906 -0.71875 -17.328125 C -0.382812 -18.660156 0.160156 -19.859375 0.921875 -20.921875 C 1.691406 -21.992188 2.75 -22.863281 4.09375 -23.53125 C 5.445312 -24.207031 7.082031 -24.5625 9 -24.59375 C 10.269531 -24.59375 11.519531 -24.441406 12.75 -24.140625 C 13.976562 -23.847656 15.101562 -23.4375 16.125 -22.90625 C 17.15625 -22.375 18.035156 -21.722656 18.765625 -20.953125 C 19.503906 -20.191406 19.988281 -19.367188 20.21875 -18.484375 L 13.65625 -14.1875 C 13.21875 -15.28125 11.75 -15.828125 9.25 -15.828125 C 8.675781 -15.828125 8.09375 -15.421875 7.5 -14.609375 C 6.90625 -13.804688 6.609375 -12.894531 6.609375 -11.875 C 6.660156 -11.101562 6.890625 -10.363281 7.296875 -9.65625 C 7.703125 -8.945312 8.429688 -8.570312 9.484375 -8.53125 C 9.566406 -8.53125 9.71875 -8.554688 9.9375 -8.609375 C 10.15625 -8.660156 10.347656 -8.707031 10.515625 -8.75 C 10.691406 -8.789062 10.867188 -8.832031 11.046875 -8.875 Z M 11.046875 -8.875 "/></g></g></g><g clip-path="url(#e90a8a3ccb)"><path fill="#d9d9d9" d="M 184.402344 149.949219 C 184.402344 152.820312 182.074219 155.148438 179.203125 155.148438 C 176.328125 155.148438 174 152.820312 174 149.949219 C 174 147.078125 176.328125 144.746094 179.203125 144.746094 C 182.074219 144.746094 184.402344 147.078125 184.402344 149.949219 " fill-opacity="1" fill-rule="nonzero"/></g><g clip-path="url(#1cac31d3cc)"><g clip-path="url(#20a82896f2)"><path fill="#ed2e49" d="M 184.675781 149.949219 L 173.726562 149.949219 L 173.726562 144.527344 L 184.675781 144.527344 L 184.675781 149.949219 " fill-opacity="1" fill-rule="nonzero"/></g></g><g clip-path="url(#c47e0c1e9a)"><g clip-path="url(#b396182fce)"><path fill="#28292a" d="M 184.84375 150.519531 L 173.558594 150.519531 L 173.558594 149.378906 L 184.84375 149.378906 L 184.84375 150.519531 " fill-opacity="1" fill-rule="nonzero"/></g></g><g clip-path="url(#7393efab6d)"><g clip-path="url(#2469285446)"><path fill="#28292a" d="M 181.582031 149.949219 C 181.582031 151.261719 180.515625 152.328125 179.203125 152.328125 C 177.886719 152.328125 176.820312 151.261719 176.820312 149.949219 C 176.820312 148.636719 177.886719 147.570312 179.203125 147.570312 C 180.515625 147.570312 181.582031 148.636719 181.582031 149.949219 " fill-opacity="1" fill-rule="nonzero"/></g></g><g clip-path="url(#e77e8c152e)"><g clip-path="url(#bc9dcfcc24)"><path fill="#d9d9d9" d="M 180.515625 149.949219 C 180.515625 150.675781 179.925781 151.261719 179.203125 151.261719 C 178.476562 151.261719 177.886719 150.675781 177.886719 149.949219 C 177.886719 149.222656 178.476562 148.636719 179.203125 148.636719 C 179.925781 148.636719 180.515625 149.222656 180.515625 149.949219 " fill-opacity="1" fill-rule="nonzero"/></g></g><g clip-path="url(#789642d0ff)"><path fill="#d9d9d9" d="M 200.335938 148.347656 C 200.335938 151.222656 198.007812 153.550781 195.136719 153.550781 C 192.261719 153.550781 189.933594 151.222656 189.933594 148.347656 C 189.933594 145.476562 192.261719 143.148438 195.136719 143.148438 C 198.007812 143.148438 200.335938 145.476562 200.335938 148.347656 " fill-opacity="1" fill-rule="nonzero"/></g><g clip-path="url(#6c6b2fbae0)"><g clip-path="url(#40a3882229)"><path fill="#ed2e49" d="M 200.609375 148.347656 L 189.660156 148.347656 L 189.660156 142.925781 L 200.609375 142.925781 L 200.609375 148.347656 " fill-opacity="1" fill-rule="nonzero"/></g></g><g clip-path="url(#c080160e75)"><g clip-path="url(#0990e5b4ab)"><path fill="#28292a" d="M 200.78125 148.921875 L 189.492188 148.921875 L 189.492188 147.777344 L 200.78125 147.777344 L 200.78125 148.921875 " fill-opacity="1" fill-rule="nonzero"/></g></g><g clip-path="url(#33b71051b2)"><g clip-path="url(#bcf1e6e339)"><path fill="#28292a" d="M 197.515625 148.347656 C 197.515625 149.664062 196.449219 150.726562 195.136719 150.726562 C 193.820312 150.726562 192.753906 149.664062 192.753906 148.347656 C 192.753906 147.035156 193.820312 145.96875 195.136719 145.96875 C 196.449219 145.96875 197.515625 147.035156 197.515625 148.347656 " fill-opacity="1" fill-rule="nonzero"/></g></g><g clip-path="url(#88320d841f)"><g clip-path="url(#de3b33436d)"><path fill="#d9d9d9" d="M 196.449219 148.347656 C 196.449219 149.074219 195.859375 149.664062 195.136719 149.664062 C 194.410156 149.664062 193.820312 149.074219 193.820312 148.347656 C 193.820312 147.625 194.410156 147.035156 195.136719 147.035156 C 195.859375 147.035156 196.449219 147.625 196.449219 148.347656 " fill-opacity="1" fill-rule="nonzero"/></g></g><g clip-path="url(#643f7ff431)"><path fill="#d9d9d9" d="M 216.269531 149.949219 C 216.269531 152.820312 213.941406 155.148438 211.070312 155.148438 C 208.195312 155.148438 205.867188 152.820312 205.867188 149.949219 C 205.867188 147.078125 208.195312 144.746094 211.070312 144.746094 C 213.941406 144.746094 216.269531 147.078125 216.269531 149.949219 " fill-opacity="1" fill-rule="nonzero"/></g><g clip-path="url(#a1df8335b9)"><g clip-path="url(#64c17576c6)"><path fill="#ed2e49" d="M 216.542969 149.949219 L 205.59375 149.949219 L 205.59375 144.527344 L 216.542969 144.527344 L 216.542969 149.949219 " fill-opacity="1" fill-rule="nonzero"/></g></g><g clip-path="url(#2b0aad05b0)"><g clip-path="url(#a46a6de431)"><path fill="#28292a" d="M 216.714844 150.519531 L 205.425781 150.519531 L 205.425781 149.378906 L 216.714844 149.378906 L 216.714844 150.519531 " fill-opacity="1" fill-rule="nonzero"/></g></g><g clip-path="url(#153410cd1c)"><g clip-path="url(#4d04f8820d)"><path fill="#28292a" d="M 213.449219 149.949219 C 213.449219 151.261719 212.382812 152.328125 211.070312 152.328125 C 209.753906 152.328125 208.6875 151.261719 208.6875 149.949219 C 208.6875 148.636719 209.753906 147.570312 211.070312 147.570312 C 212.382812 147.570312 213.449219 148.636719 213.449219 149.949219 " fill-opacity="1" fill-rule="nonzero"/></g></g><g clip-path="url(#39267bfbeb)"><g clip-path="url(#7a64e586b1)"><path fill="#d9d9d9" d="M 212.382812 149.949219 C 212.382812 150.675781 211.792969 151.261719 211.070312 151.261719 C 210.34375 151.261719 209.753906 150.675781 209.753906 149.949219 C 209.753906 149.222656 210.34375 148.636719 211.070312 148.636719 C 211.792969 148.636719 212.382812 149.222656 212.382812 149.949219 " fill-opacity="1" fill-rule="nonzero"/></g></g><g clip-path="url(#1fe8e3b400)"><path fill="#e6dbdb" d="M 58.925781 137.578125 C 58.925781 145.753906 52.300781 152.382812 44.125 152.382812 C 35.949219 152.382812 29.320312 145.753906 29.320312 137.578125 C 29.320312 129.402344 35.949219 122.777344 44.125 122.777344 C 52.300781 122.777344 58.925781 129.402344 58.925781 137.578125 " fill-opacity="1" fill-rule="nonzero"/></g><g clip-path="url(#ee9dd782f8)"><g clip-path="url(#98eadcec5a)"><path fill="#ed2e49" d="M 59.707031 137.578125 L 28.539062 137.578125 L 28.539062 122.152344 L 59.707031 122.152344 L 59.707031 137.578125 " fill-opacity="1" fill-rule="nonzero"/></g></g><g clip-path="url(#6828ee50c3)"><g clip-path="url(#5be3d98023)"><path fill="#28292a" d="M 60.1875 139.207031 L 28.058594 139.207031 L 28.058594 135.953125 L 60.1875 135.953125 L 60.1875 139.207031 " fill-opacity="1" fill-rule="nonzero"/></g></g><g clip-path="url(#6065589905)"><g clip-path="url(#ff88575b95)"><path fill="#28292a" d="M 50.894531 137.578125 C 50.894531 141.320312 47.863281 144.351562 44.125 144.351562 C 40.382812 144.351562 37.351562 141.320312 37.351562 137.578125 C 37.351562 133.839844 40.382812 130.808594 44.125 130.808594 C 47.863281 130.808594 50.894531 133.839844 50.894531 137.578125 " fill-opacity="1" fill-rule="nonzero"/></g></g><g clip-path="url(#f609ad23d9)"><g clip-path="url(#346b89b98a)"><path fill="#e6dbdb" d="M 47.863281 137.578125 C 47.863281 139.644531 46.1875 141.320312 44.125 141.320312 C 42.058594 141.320312 40.382812 139.644531 40.382812 137.578125 C 40.382812 135.515625 42.058594 133.839844 44.125 133.839844 C 46.1875 133.839844 47.863281 135.515625 47.863281 137.578125 " fill-opacity="1" fill-rule="nonzero"/></g></g></svg>