<svg xmlns="http://www.w3.org/2000/svg" xmlns:xlink="http://www.w3.org/1999/xlink" width="350" zoomAndPan="magnify" viewBox="0 0 262.5 52.499999" height="70" preserveAspectRatio="xMidYMid meet" version="1.0"><defs><g/></defs><g fill="#ffcb05" fill-opacity="1"><g transform="translate(45.652154, 33.495278)"><g><path d="M 2.015625 -20.4375 L 8.75 -20.875 L 10.546875 -17.96875 L 12.125 -22 L 16.5 -22.109375 L 21.65625 1.90625 L 13.6875 1.125 L 12.234375 -7.078125 L 10.65625 -4.046875 L 8.53125 -7.84375 L 7.84375 -0.90625 L 0.109375 -0.34375 Z M 2.015625 -20.4375 "/></g></g></g><g fill="#ffcb05" fill-opacity="1"><g transform="translate(66.706137, 33.495278)"><g><path d="M -1.125 -13.359375 L 4.375 -15.9375 L 9.875 -5.734375 L 13.25 -15.15625 L 19.3125 -12.796875 L 9.09375 11.890625 L 3.703125 9.875 L 6.84375 1.34375 Z M -1.125 -13.359375 "/></g></g></g><g fill="#ffcb05" fill-opacity="1"><g transform="translate(86.348706, 33.495278)"><g/></g></g><g fill="#ffcb05" fill-opacity="1"><g transform="translate(101.784423, 33.495278)"><g><path d="M -1.125 -21.765625 C -0.0195312 -22.140625 1.015625 -22.476562 1.984375 -22.78125 C 2.960938 -23.09375 3.988281 -23.390625 5.0625 -23.671875 C 6.144531 -23.953125 7.179688 -24.171875 8.171875 -24.328125 C 8.921875 -24.460938 9.695312 -24.53125 10.5 -24.53125 C 11.820312 -24.53125 12.6875 -24.492188 13.09375 -24.421875 C 13.71875 -24.296875 14.304688 -24.097656 14.859375 -23.828125 C 15.410156 -23.566406 15.898438 -23.210938 16.328125 -22.765625 C 16.765625 -22.328125 17.125 -21.8125 17.40625 -21.21875 C 17.507812 -20.96875 17.5625 -20.707031 17.5625 -20.4375 C 17.5625 -19.40625 17 -18.140625 15.875 -16.640625 C 14.757812 -15.148438 13.640625 -13.847656 12.515625 -12.734375 C 11.390625 -11.617188 10.546875 -10.816406 9.984375 -10.328125 L 12.453125 -1.6875 L 8.859375 0.90625 L 2.578125 -17.0625 C 2.554688 -17.0625 2.46875 -16.972656 2.3125 -16.796875 C 2.15625 -16.617188 1.953125 -16.390625 1.703125 -16.109375 C 1.453125 -15.835938 1.296875 -15.671875 1.234375 -15.609375 C 1.203125 -15.609375 1.109375 -15.800781 0.953125 -16.1875 C 0.804688 -16.582031 0.609375 -17.128906 0.359375 -17.828125 C 0.109375 -18.523438 -0.171875 -19.300781 -0.484375 -20.15625 C -0.796875 -21.007812 -1.007812 -21.546875 -1.125 -21.765625 Z M 7.734375 -17.96875 L 8.859375 -13.921875 C 9.429688 -14.492188 10.132812 -15.273438 10.96875 -16.265625 C 11.8125 -17.265625 12.234375 -17.988281 12.234375 -18.4375 C 12.234375 -18.613281 12.160156 -18.71875 12.015625 -18.75 C 11.609375 -18.832031 11.203125 -18.875 10.796875 -18.875 C 9.585938 -18.875 8.566406 -18.570312 7.734375 -17.96875 Z M 7.734375 -17.96875 "/></g></g></g><g fill="#ffcb05" fill-opacity="1"><g transform="translate(118.617853, 33.495278)"><g><path d="M 12.421875 -14.84375 C 13.078125 -14.488281 13.609375 -14.015625 14.015625 -13.421875 C 14.421875 -12.835938 14.71875 -12.175781 14.90625 -11.4375 C 15.09375 -10.707031 15.1875 -9.945312 15.1875 -9.15625 C 15.1875 -8.5 15.128906 -7.863281 15.015625 -7.25 C 14.910156 -6.632812 14.765625 -6.070312 14.578125 -5.5625 C 14.398438 -5.050781 14.191406 -4.617188 13.953125 -4.265625 C 13.367188 -3.398438 12.75 -2.65625 12.09375 -2.03125 C 11.4375 -1.414062 10.765625 -0.914062 10.078125 -0.53125 C 9.398438 -0.15625 8.722656 0.117188 8.046875 0.296875 C 7.378906 0.472656 6.71875 0.5625 6.0625 0.5625 C 5.28125 0.5625 4.539062 0.4375 3.84375 0.1875 C 3.144531 -0.0507812 2.550781 -0.363281 2.0625 -0.75 C 1.238281 -1.425781 0.597656 -2.335938 0.140625 -3.484375 C -0.304688 -4.628906 -0.53125 -5.84375 -0.53125 -7.125 C -0.53125 -9.320312 0.101562 -11.097656 1.375 -12.453125 C 2.457031 -13.617188 3.578125 -14.492188 4.734375 -15.078125 C 5.898438 -15.671875 7.085938 -15.96875 8.296875 -15.96875 C 9.015625 -15.96875 9.703125 -15.875 10.359375 -15.6875 C 11.015625 -15.507812 11.703125 -15.226562 12.421875 -14.84375 Z M 11.625 -12.53125 C 11.46875 -11.84375 11.128906 -11.234375 10.609375 -10.703125 C 10.097656 -10.171875 9.59375 -9.90625 9.09375 -9.90625 C 8.851562 -9.90625 8.632812 -9.96875 8.4375 -10.09375 C 8.164062 -10.3125 8.03125 -10.695312 8.03125 -11.25 C 8.03125 -11.664062 8.164062 -12.078125 8.4375 -12.484375 C 8.71875 -12.898438 9.160156 -13.226562 9.765625 -13.46875 C 9.160156 -13.46875 8.578125 -13.351562 8.015625 -13.125 C 7.460938 -12.894531 6.984375 -12.597656 6.578125 -12.234375 C 6.171875 -11.878906 5.847656 -11.472656 5.609375 -11.015625 C 5.367188 -10.566406 5.25 -10.113281 5.25 -9.65625 C 5.25 -8.8125 5.640625 -8.132812 6.421875 -7.625 C 7.148438 -7.164062 7.847656 -6.9375 8.515625 -6.9375 C 9.160156 -6.9375 9.734375 -7.148438 10.234375 -7.578125 C 10.734375 -8.015625 11.113281 -8.570312 11.375 -9.25 C 11.644531 -9.9375 11.78125 -10.613281 11.78125 -11.28125 C 11.78125 -11.738281 11.726562 -12.15625 11.625 -12.53125 Z M 11.625 -12.53125 "/></g></g></g><g fill="#ffcb05" fill-opacity="1"><g transform="translate(134.053567, 33.495278)"><g><path d="M -1.125 -22.890625 L 5.84375 -25.8125 L 6.84375 -9.984375 L 12.578125 -13.125 L 18.53125 -12.234375 L 10.765625 -6.296875 L 18.078125 -0.78125 L 18.40625 4.71875 L 7.625 -3.03125 L 7.96875 3.703125 L 1.453125 3.828125 L 0.21875 -19.984375 L -1.796875 -19.53125 Z M -1.125 -22.890625 "/></g></g></g><g fill="#ffcb05" fill-opacity="1"><g transform="translate(150.887002, 33.495278)"><g><path d="M 12.640625 -7.578125 L 15.9375 -3.59375 C 15.664062 -2.820312 15.035156 -2.113281 14.046875 -1.46875 C 13.054688 -0.832031 11.878906 -0.332031 10.515625 0.03125 C 9.148438 0.40625 7.785156 0.59375 6.421875 0.59375 C 5.222656 0.59375 4.148438 0.429688 3.203125 0.109375 C 2.253906 -0.210938 1.523438 -0.695312 1.015625 -1.34375 C 0.128906 -2.457031 -0.3125 -3.882812 -0.3125 -5.625 C -0.3125 -6.988281 -0.0664062 -8.332031 0.421875 -9.65625 C 0.921875 -10.988281 1.453125 -11.921875 2.015625 -12.453125 C 2.679688 -13.085938 3.40625 -13.613281 4.1875 -14.03125 C 4.96875 -14.445312 5.773438 -14.757812 6.609375 -14.96875 C 7.453125 -15.1875 8.316406 -15.296875 9.203125 -15.296875 C 10.367188 -15.296875 11.472656 -15.109375 12.515625 -14.734375 C 13.566406 -14.367188 14.484375 -13.832031 15.265625 -13.125 L 7.734375 -4.15625 C 8.398438 -4.15625 9.03125 -4.289062 9.625 -4.5625 C 10.226562 -4.84375 10.78125 -5.238281 11.28125 -5.75 C 11.789062 -6.269531 12.242188 -6.878906 12.640625 -7.578125 Z M 8.84375 -10.765625 C 8.394531 -10.992188 7.9375 -11.109375 7.46875 -11.109375 C 6.976562 -11.109375 6.5 -11.007812 6.03125 -10.8125 C 5.570312 -10.613281 5.25 -10.375 5.0625 -10.09375 C 4.488281 -9.363281 4.203125 -8.5625 4.203125 -7.6875 C 4.203125 -7.363281 4.234375 -7.054688 4.296875 -6.765625 C 4.367188 -6.472656 4.476562 -6.070312 4.625 -5.5625 Z M 1.796875 -20.65625 L 9.09375 -24.6875 L 12.234375 -19.875 L 3.375 -18.1875 Z M 1.796875 -20.65625 "/></g></g></g><g fill="#ffcb05" fill-opacity="1"><g transform="translate(166.322723, 33.495278)"><g><path d="M 9.09375 -13.421875 C 8.59375 -13.347656 8.097656 -13.179688 7.609375 -12.921875 C 7.117188 -12.671875 6.703125 -12.375 6.359375 -12.03125 C 6.015625 -11.6875 5.742188 -11.304688 5.546875 -10.890625 C 5.347656 -10.472656 5.25 -10.0625 5.25 -9.65625 C 5.25 -8.820312 5.640625 -8.144531 6.421875 -7.625 C 7.117188 -7.164062 7.820312 -6.9375 8.53125 -6.9375 C 8.664062 -6.9375 8.851562 -6.953125 9.09375 -6.984375 L 9.09375 -9.90625 C 8.851562 -9.90625 8.632812 -9.96875 8.4375 -10.09375 C 8.164062 -10.3125 8.03125 -10.734375 8.03125 -11.359375 C 8.03125 -12.253906 8.382812 -12.941406 9.09375 -13.421875 Z M 8.96875 -26.71875 L 14.703125 -29.296875 L 15.046875 -10.75 C 15.117188 -10.269531 15.15625 -9.726562 15.15625 -9.125 C 15.15625 -8.59375 15.132812 -8.203125 15.09375 -7.953125 L 15.265625 0.453125 L 9.09375 0.78125 L 9.09375 -0.0625 C 8.09375 0.351562 7.082031 0.5625 6.0625 0.5625 C 5.269531 0.5625 4.53125 0.441406 3.84375 0.203125 C 3.15625 -0.0351562 2.5625 -0.351562 2.0625 -0.75 C 1.238281 -1.425781 0.597656 -2.335938 0.140625 -3.484375 C -0.304688 -4.628906 -0.53125 -5.84375 -0.53125 -7.125 C -0.53125 -9.320312 0.101562 -11.097656 1.375 -12.453125 C 2.46875 -13.609375 3.597656 -14.484375 4.765625 -15.078125 C 5.929688 -15.671875 7.117188 -15.96875 8.328125 -15.96875 C 8.671875 -15.96875 8.925781 -15.957031 9.09375 -15.9375 Z M 8.96875 -26.71875 "/></g></g></g><g fill="#ffcb05" fill-opacity="1"><g transform="translate(181.758443, 33.495278)"><g><path d="M 12.640625 -7.578125 L 15.9375 -3.59375 C 15.664062 -2.820312 15.035156 -2.113281 14.046875 -1.46875 C 13.054688 -0.832031 11.878906 -0.332031 10.515625 0.03125 C 9.148438 0.40625 7.785156 0.59375 6.421875 0.59375 C 5.222656 0.59375 4.148438 0.429688 3.203125 0.109375 C 2.253906 -0.210938 1.523438 -0.695312 1.015625 -1.34375 C 0.128906 -2.457031 -0.3125 -3.882812 -0.3125 -5.625 C -0.3125 -6.988281 -0.0664062 -8.332031 0.421875 -9.65625 C 0.921875 -10.988281 1.453125 -11.921875 2.015625 -12.453125 C 2.679688 -13.085938 3.40625 -13.613281 4.1875 -14.03125 C 4.96875 -14.445312 5.773438 -14.757812 6.609375 -14.96875 C 7.453125 -15.1875 8.316406 -15.296875 9.203125 -15.296875 C 10.367188 -15.296875 11.472656 -15.109375 12.515625 -14.734375 C 13.566406 -14.367188 14.484375 -13.832031 15.265625 -13.125 L 7.734375 -4.15625 C 8.398438 -4.15625 9.03125 -4.289062 9.625 -4.5625 C 10.226562 -4.84375 10.78125 -5.238281 11.28125 -5.75 C 11.789062 -6.269531 12.242188 -6.878906 12.640625 -7.578125 Z M 8.84375 -10.765625 C 8.394531 -10.992188 7.9375 -11.109375 7.46875 -11.109375 C 6.976562 -11.109375 6.5 -11.007812 6.03125 -10.8125 C 5.570312 -10.613281 5.25 -10.375 5.0625 -10.09375 C 4.488281 -9.363281 4.203125 -8.5625 4.203125 -7.6875 C 4.203125 -7.363281 4.234375 -7.054688 4.296875 -6.765625 C 4.367188 -6.472656 4.476562 -6.070312 4.625 -5.5625 Z M 8.84375 -10.765625 "/></g></g></g><g fill="#ffcb05" fill-opacity="1"><g transform="translate(197.194163, 33.495278)"><g><path d="M 9.828125 -2.609375 L 6.515625 1.6875 L -0.5625 1.90625 L 6.296875 -7.15625 L -1.453125 -17.171875 L 6.0625 -16.84375 L 9.828125 -11.859375 L 13.578125 -16.84375 L 21.109375 -17.171875 L 13.359375 -7.15625 L 20.21875 1.90625 L 13.125 1.6875 Z M 9.828125 -2.609375 "/></g></g></g><g fill="#385ba9" fill-opacity="1"><g transform="translate(45.366257, 33.495114)"><g><path d="M 8.765625 -19.875 L 2.46875 -19.53125 L 1.015625 -1.125 L 7.296875 -1.578125 L 8.09375 -9.890625 C 8.257812 -9.546875 8.503906 -9.0625 8.828125 -8.4375 C 9.148438 -7.820312 9.507812 -7.140625 9.90625 -6.390625 C 10.3125 -5.648438 10.53125 -5.28125 10.5625 -5.28125 C 10.59375 -5.28125 10.929688 -5.910156 11.578125 -7.171875 C 12.222656 -8.429688 12.554688 -9.078125 12.578125 -9.109375 L 14.265625 0.5625 L 20.78125 1.34375 C 20.582031 0.40625 20.210938 -1.3125 19.671875 -3.8125 C 19.128906 -6.3125 18.570312 -8.898438 18 -11.578125 C 17.4375 -14.265625 16.953125 -16.570312 16.546875 -18.5 C 16.140625 -20.425781 15.9375 -21.445312 15.9375 -21.5625 L 12.46875 -21.453125 L 10.5625 -16.28125 Z M 2.015625 -20.4375 L 8.765625 -20.890625 L 10.5625 -17.96875 L 12.140625 -22.015625 L 16.5 -22.125 L 21.671875 1.90625 L 13.703125 1.125 L 12.25 -7.078125 L 10.671875 -4.046875 L 8.546875 -7.859375 L 7.859375 -0.90625 L 0.109375 -0.34375 Z M 2.015625 -20.4375 "/></g></g></g><g fill="#385ba9" fill-opacity="1"><g transform="translate(66.484619, 33.495114)"><g><path d="M 0.109375 -13.03125 L 7.75 1.125 L 4.609375 9.4375 L 8.765625 10.78125 L 18.296875 -12.578125 L 13.8125 -14.375 L 9.890625 -3.703125 L 3.9375 -14.828125 Z M -1.125 -13.375 L 4.375 -15.9375 L 9.890625 -5.734375 L 13.25 -15.15625 L 19.3125 -12.8125 L 9.109375 11.90625 L 3.703125 9.890625 L 6.859375 1.34375 Z M -1.125 -13.375 "/></g></g></g><g fill="#385ba9" fill-opacity="1"><g transform="translate(86.190977, 33.495114)"><g/></g></g><g fill="#385ba9" fill-opacity="1"><g transform="translate(101.688744, 33.495114)"><g><path d="M -0.21875 -21.21875 L 1.453125 -16.734375 C 1.660156 -17.023438 1.90625 -17.273438 2.1875 -17.484375 C 2.476562 -17.691406 2.722656 -17.796875 2.921875 -17.796875 C 3.035156 -17.796875 3.109375 -17.738281 3.140625 -17.625 L 9.109375 -0.109375 L 11.6875 -1.6875 L 9.109375 -10.78125 C 10.234375 -11.707031 11.382812 -12.800781 12.5625 -14.0625 C 13.738281 -15.332031 14.6875 -16.546875 15.40625 -17.703125 C 16.132812 -18.867188 16.5 -19.8125 16.5 -20.53125 C 16.5 -20.769531 16.460938 -20.960938 16.390625 -21.109375 C 16.191406 -21.585938 15.929688 -21.992188 15.609375 -22.328125 C 15.285156 -22.660156 14.914062 -22.925781 14.5 -23.125 C 14.082031 -23.332031 13.617188 -23.484375 13.109375 -23.578125 C 12.597656 -23.679688 12.023438 -23.734375 11.390625 -23.734375 C 10.617188 -23.734375 9.816406 -23.671875 8.984375 -23.546875 C 8.160156 -23.421875 7.300781 -23.25 6.40625 -23.03125 C 5.519531 -22.820312 4.394531 -22.53125 3.03125 -22.15625 C 1.675781 -21.78125 0.59375 -21.46875 -0.21875 -21.21875 Z M 6.859375 -18.859375 C 7.472656 -19.003906 8.039062 -19.144531 8.5625 -19.28125 C 9.082031 -19.414062 9.609375 -19.523438 10.140625 -19.609375 C 10.671875 -19.703125 11.117188 -19.75 11.484375 -19.75 C 11.816406 -19.75 12.109375 -19.71875 12.359375 -19.65625 C 12.859375 -19.507812 13.109375 -19.21875 13.109375 -18.78125 C 13.109375 -17.945312 12.535156 -16.867188 11.390625 -15.546875 C 10.242188 -14.222656 9.296875 -13.195312 8.546875 -12.46875 Z M -1.125 -21.78125 C -0.0195312 -22.144531 1.015625 -22.484375 1.984375 -22.796875 C 2.960938 -23.109375 3.988281 -23.40625 5.0625 -23.6875 C 6.144531 -23.96875 7.175781 -24.1875 8.15625 -24.34375 C 9.144531 -24.507812 10.113281 -24.59375 11.0625 -24.59375 C 11.800781 -24.59375 12.484375 -24.535156 13.109375 -24.421875 C 13.734375 -24.304688 14.320312 -24.113281 14.875 -23.84375 C 15.425781 -23.582031 15.914062 -23.226562 16.34375 -22.78125 C 16.78125 -22.34375 17.132812 -21.820312 17.40625 -21.21875 C 17.519531 -20.976562 17.578125 -20.71875 17.578125 -20.4375 C 17.578125 -19.414062 17.015625 -18.15625 15.890625 -16.65625 C 14.773438 -15.15625 13.648438 -13.847656 12.515625 -12.734375 C 11.390625 -11.617188 10.550781 -10.820312 10 -10.34375 L 12.46875 -1.6875 L 8.875 0.90625 L 2.578125 -17.0625 C 2.554688 -17.0625 2.46875 -16.972656 2.3125 -16.796875 C 2.15625 -16.628906 1.953125 -16.40625 1.703125 -16.125 C 1.453125 -15.851562 1.296875 -15.679688 1.234375 -15.609375 C 1.203125 -15.609375 1.109375 -15.804688 0.953125 -16.203125 C 0.804688 -16.597656 0.609375 -17.144531 0.359375 -17.84375 C 0.109375 -18.539062 -0.171875 -19.316406 -0.484375 -20.171875 C -0.796875 -21.023438 -1.007812 -21.5625 -1.125 -21.78125 Z M 7.75 -17.96875 L 8.875 -13.921875 C 9.4375 -14.503906 10.140625 -15.289062 10.984375 -16.28125 C 11.828125 -17.28125 12.25 -18.003906 12.25 -18.453125 C 12.25 -18.628906 12.175781 -18.726562 12.03125 -18.75 C 11.613281 -18.84375 11.203125 -18.890625 10.796875 -18.890625 C 9.597656 -18.890625 8.582031 -18.582031 7.75 -17.96875 Z M 7.75 -17.96875 "/></g></g></g><g fill="#385ba9" fill-opacity="1"><g transform="translate(118.584806, 33.495114)"><g><path d="M 11.875 -14.15625 C 11.09375 -14.84375 10.09375 -15.1875 8.875 -15.1875 C 8.195312 -15.1875 7.484375 -15.0625 6.734375 -14.8125 C 5.984375 -14.5625 5.222656 -14.179688 4.453125 -13.671875 C 3.691406 -13.171875 2.96875 -12.546875 2.28125 -11.796875 C 1.832031 -11.304688 1.46875 -10.789062 1.1875 -10.25 C 0.914062 -9.707031 0.710938 -9.140625 0.578125 -8.546875 C 0.441406 -7.953125 0.375 -7.359375 0.375 -6.765625 C 0.375 -5.609375 0.597656 -4.535156 1.046875 -3.546875 C 1.503906 -2.554688 2.117188 -1.796875 2.890625 -1.265625 C 3.691406 -0.703125 4.6875 -0.421875 5.875 -0.421875 C 7.207031 -0.421875 8.53125 -0.816406 9.84375 -1.609375 C 11.164062 -2.398438 12.234375 -3.550781 13.046875 -5.0625 C 13.796875 -6.394531 14.171875 -7.75 14.171875 -9.125 C 14.171875 -10.113281 13.972656 -11.035156 13.578125 -11.890625 C 13.191406 -12.742188 12.625 -13.5 11.875 -14.15625 Z M 12.4375 -14.84375 C 13.082031 -14.5 13.609375 -14.03125 14.015625 -13.4375 C 14.421875 -12.851562 14.71875 -12.191406 14.90625 -11.453125 C 15.09375 -10.710938 15.1875 -9.945312 15.1875 -9.15625 C 15.1875 -8.5 15.132812 -7.863281 15.03125 -7.25 C 14.925781 -6.632812 14.78125 -6.070312 14.59375 -5.5625 C 14.414062 -5.050781 14.203125 -4.617188 13.953125 -4.265625 C 13.378906 -3.398438 12.765625 -2.65625 12.109375 -2.03125 C 11.453125 -1.414062 10.78125 -0.914062 10.09375 -0.53125 C 9.40625 -0.15625 8.722656 0.117188 8.046875 0.296875 C 7.378906 0.472656 6.71875 0.5625 6.0625 0.5625 C 5.28125 0.5625 4.539062 0.4375 3.84375 0.1875 C 3.144531 -0.0507812 2.550781 -0.363281 2.0625 -0.75 C 1.25 -1.425781 0.613281 -2.335938 0.15625 -3.484375 C -0.300781 -4.628906 -0.53125 -5.84375 -0.53125 -7.125 C -0.53125 -9.332031 0.101562 -11.113281 1.375 -12.46875 C 2.457031 -13.625 3.578125 -14.492188 4.734375 -15.078125 C 5.898438 -15.671875 7.09375 -15.96875 8.3125 -15.96875 C 9.019531 -15.96875 9.703125 -15.878906 10.359375 -15.703125 C 11.023438 -15.523438 11.71875 -15.238281 12.4375 -14.84375 Z M 11.625 -12.546875 C 11.738281 -12.160156 11.796875 -11.738281 11.796875 -11.28125 C 11.796875 -10.613281 11.660156 -9.9375 11.390625 -9.25 C 11.128906 -8.570312 10.742188 -8.015625 10.234375 -7.578125 C 9.734375 -7.148438 9.160156 -6.9375 8.515625 -6.9375 C 7.859375 -6.9375 7.164062 -7.171875 6.4375 -7.640625 C 5.644531 -8.140625 5.25 -8.816406 5.25 -9.671875 C 5.25 -10.117188 5.367188 -10.566406 5.609375 -11.015625 C 5.859375 -11.472656 6.179688 -11.882812 6.578125 -12.25 C 6.984375 -12.613281 7.460938 -12.910156 8.015625 -13.140625 C 8.578125 -13.367188 9.164062 -13.484375 9.78125 -13.484375 C 9.175781 -13.242188 8.734375 -12.914062 8.453125 -12.5 C 8.171875 -12.09375 8.03125 -11.675781 8.03125 -11.25 C 8.03125 -10.707031 8.171875 -10.328125 8.453125 -10.109375 C 8.640625 -9.972656 8.859375 -9.90625 9.109375 -9.90625 C 9.597656 -9.90625 10.097656 -10.171875 10.609375 -10.703125 C 11.128906 -11.234375 11.46875 -11.847656 11.625 -12.546875 Z M 11.625 -12.546875 "/></g></g></g><g fill="#385ba9" fill-opacity="1"><g transform="translate(134.082573, 33.495114)"><g><path d="M -1.125 -22.90625 L 5.84375 -25.828125 L 6.859375 -10 L 12.578125 -13.140625 L 18.53125 -12.25 L 10.78125 -6.296875 L 18.078125 -0.78125 L 18.40625 4.71875 L 7.640625 -3.03125 L 7.984375 3.703125 L 1.453125 3.828125 L 0.21875 -19.984375 L -1.796875 -19.53125 Z M 16.609375 -11.578125 L 12.703125 -12.140625 L 6.1875 -8.984375 L 5.171875 -24.8125 L -0.453125 -22.453125 L -0.90625 -20.546875 L 1.015625 -21.5625 L 2.25 3.140625 L 7.078125 3.03125 L 6.859375 -4.609375 L 17.625 3.375 C 17.625 2.90625 17.582031 2.128906 17.5 1.046875 C 17.425781 -0.0234375 17.359375 -0.5625 17.296875 -0.5625 C 17.285156 -0.5625 16.820312 -0.882812 15.90625 -1.53125 C 15 -2.1875 14.164062 -2.785156 13.40625 -3.328125 C 12.65625 -3.878906 11.867188 -4.453125 11.046875 -5.046875 C 10.222656 -5.640625 9.648438 -6.054688 9.328125 -6.296875 Z M 16.609375 -11.578125 "/></g></g></g><g fill="#385ba9" fill-opacity="1"><g transform="translate(150.978635, 33.495114)"><g><path d="M 12.640625 -7.578125 L 15.9375 -3.59375 C 15.675781 -2.820312 15.050781 -2.113281 14.0625 -1.46875 C 13.070312 -0.832031 11.890625 -0.332031 10.515625 0.03125 C 9.148438 0.40625 7.789062 0.59375 6.4375 0.59375 C 5.226562 0.59375 4.148438 0.429688 3.203125 0.109375 C 2.253906 -0.210938 1.523438 -0.695312 1.015625 -1.34375 C 0.128906 -2.457031 -0.3125 -3.882812 -0.3125 -5.625 C -0.3125 -6.988281 -0.0664062 -8.335938 0.421875 -9.671875 C 0.921875 -11.003906 1.453125 -11.9375 2.015625 -12.46875 C 2.679688 -13.09375 3.40625 -13.613281 4.1875 -14.03125 C 4.96875 -14.457031 5.78125 -14.773438 6.625 -14.984375 C 7.46875 -15.191406 8.332031 -15.296875 9.21875 -15.296875 C 10.375 -15.296875 11.472656 -15.109375 12.515625 -14.734375 C 13.566406 -14.367188 14.484375 -13.835938 15.265625 -13.140625 L 7.75 -4.15625 C 8.414062 -4.15625 9.046875 -4.289062 9.640625 -4.5625 C 10.242188 -4.84375 10.796875 -5.242188 11.296875 -5.765625 C 11.796875 -6.285156 12.242188 -6.890625 12.640625 -7.578125 Z M 12.71875 -6.828125 C 12.71875 -6.367188 12.390625 -5.851562 11.734375 -5.28125 C 11.085938 -4.71875 10.296875 -4.234375 9.359375 -3.828125 C 8.429688 -3.429688 7.597656 -3.234375 6.859375 -3.234375 C 6.578125 -3.234375 6.367188 -3.253906 6.234375 -3.296875 L 14.375 -13.046875 C 13.582031 -13.515625 12.707031 -13.882812 11.75 -14.15625 C 10.800781 -14.4375 9.832031 -14.578125 8.84375 -14.578125 C 7.6875 -14.578125 6.585938 -14.367188 5.546875 -13.953125 C 4.503906 -13.546875 3.554688 -12.878906 2.703125 -11.953125 C 2.285156 -11.515625 1.914062 -10.957031 1.59375 -10.28125 C 1.269531 -9.601562 1.007812 -8.851562 0.8125 -8.03125 C 0.625 -7.207031 0.53125 -6.394531 0.53125 -5.59375 C 0.53125 -3.84375 1 -2.515625 1.9375 -1.609375 C 3.070312 -0.515625 4.632812 0.03125 6.625 0.03125 C 7.8125 0.03125 9.023438 -0.148438 10.265625 -0.515625 C 11.503906 -0.890625 12.570312 -1.367188 13.46875 -1.953125 C 14.375 -2.546875 14.957031 -3.128906 15.21875 -3.703125 Z M 4.546875 -4.546875 C 4.285156 -4.703125 4.0625 -5.085938 3.875 -5.703125 C 3.6875 -6.316406 3.59375 -6.976562 3.59375 -7.6875 C 3.59375 -9.03125 3.910156 -10.0625 4.546875 -10.78125 C 4.828125 -11.09375 5.191406 -11.34375 5.640625 -11.53125 C 6.097656 -11.71875 6.601562 -11.8125 7.15625 -11.8125 C 8.082031 -11.8125 8.957031 -11.523438 9.78125 -10.953125 Z M 8.84375 -10.78125 C 8.394531 -11.007812 7.9375 -11.125 7.46875 -11.125 C 6.976562 -11.125 6.5 -11.019531 6.03125 -10.8125 C 5.570312 -10.613281 5.25 -10.378906 5.0625 -10.109375 C 4.488281 -9.367188 4.203125 -8.5625 4.203125 -7.6875 C 4.203125 -7.375 4.234375 -7.066406 4.296875 -6.765625 C 4.367188 -6.472656 4.484375 -6.070312 4.640625 -5.5625 Z M 2.578125 -20.546875 L 3.484375 -18.859375 L 11.234375 -20.21875 L 8.875 -23.921875 Z M 1.796875 -20.65625 L 9.109375 -24.703125 L 12.25 -19.875 L 3.375 -18.1875 Z M 1.796875 -20.65625 "/></g></g></g><g fill="#385ba9" fill-opacity="1"><g transform="translate(166.476402, 33.495114)"><g><path d="M 9.109375 -13.421875 C 8.390625 -12.941406 8.03125 -12.253906 8.03125 -11.359375 C 8.03125 -10.742188 8.171875 -10.328125 8.453125 -10.109375 C 8.640625 -9.972656 8.859375 -9.90625 9.109375 -9.90625 L 9.109375 -6.984375 C 8.867188 -6.953125 8.679688 -6.9375 8.546875 -6.9375 C 7.828125 -6.9375 7.125 -7.171875 6.4375 -7.640625 C 5.644531 -8.160156 5.25 -8.835938 5.25 -9.671875 C 5.25 -10.066406 5.347656 -10.472656 5.546875 -10.890625 C 5.742188 -11.304688 6.015625 -11.6875 6.359375 -12.03125 C 6.703125 -12.382812 7.117188 -12.6875 7.609375 -12.9375 C 8.097656 -13.195312 8.597656 -13.359375 9.109375 -13.421875 Z M 8.984375 -26.734375 L 14.703125 -29.3125 L 15.046875 -10.75 C 15.117188 -10.269531 15.15625 -9.726562 15.15625 -9.125 C 15.15625 -8.59375 15.140625 -8.203125 15.109375 -7.953125 L 15.265625 0.453125 L 9.109375 0.78125 L 9.109375 -0.0625 C 8.097656 0.351562 7.082031 0.5625 6.0625 0.5625 C 5.269531 0.5625 4.53125 0.441406 3.84375 0.203125 C 3.15625 -0.0351562 2.5625 -0.351562 2.0625 -0.75 C 1.25 -1.425781 0.613281 -2.335938 0.15625 -3.484375 C -0.300781 -4.628906 -0.53125 -5.84375 -0.53125 -7.125 C -0.53125 -9.332031 0.101562 -11.113281 1.375 -12.46875 C 2.46875 -13.613281 3.597656 -14.484375 4.765625 -15.078125 C 5.929688 -15.671875 7.117188 -15.96875 8.328125 -15.96875 C 8.671875 -15.96875 8.929688 -15.957031 9.109375 -15.9375 Z M 9.671875 -26.390625 L 9.890625 -15.109375 C 9.742188 -15.128906 9.519531 -15.140625 9.21875 -15.140625 C 8.644531 -15.140625 8.070312 -15.066406 7.5 -14.921875 C 6.925781 -14.785156 6.328125 -14.578125 5.703125 -14.296875 C 5.085938 -14.015625 4.484375 -13.65625 3.890625 -13.21875 C 3.296875 -12.789062 2.757812 -12.316406 2.28125 -11.796875 C 1.832031 -11.304688 1.46875 -10.789062 1.1875 -10.25 C 0.914062 -9.707031 0.710938 -9.140625 0.578125 -8.546875 C 0.441406 -7.953125 0.375 -7.359375 0.375 -6.765625 C 0.375 -5.609375 0.597656 -4.535156 1.046875 -3.546875 C 1.503906 -2.554688 2.117188 -1.796875 2.890625 -1.265625 C 3.503906 -0.828125 4.382812 -0.609375 5.53125 -0.609375 C 7.019531 -0.609375 8.472656 -0.945312 9.890625 -1.625 L 9.890625 0.109375 L 14.375 -0.21875 L 14.046875 -28.296875 Z M 9.671875 -26.390625 "/></g></g></g><g fill="#385ba9" fill-opacity="1"><g transform="translate(181.974169, 33.495114)"><g><path d="M 12.640625 -7.578125 L 15.9375 -3.59375 C 15.675781 -2.820312 15.050781 -2.113281 14.0625 -1.46875 C 13.070312 -0.832031 11.890625 -0.332031 10.515625 0.03125 C 9.148438 0.40625 7.789062 0.59375 6.4375 0.59375 C 5.226562 0.59375 4.148438 0.429688 3.203125 0.109375 C 2.253906 -0.210938 1.523438 -0.695312 1.015625 -1.34375 C 0.128906 -2.457031 -0.3125 -3.882812 -0.3125 -5.625 C -0.3125 -6.988281 -0.0664062 -8.335938 0.421875 -9.671875 C 0.921875 -11.003906 1.453125 -11.9375 2.015625 -12.46875 C 2.679688 -13.09375 3.40625 -13.613281 4.1875 -14.03125 C 4.96875 -14.457031 5.78125 -14.773438 6.625 -14.984375 C 7.46875 -15.191406 8.332031 -15.296875 9.21875 -15.296875 C 10.375 -15.296875 11.472656 -15.109375 12.515625 -14.734375 C 13.566406 -14.367188 14.484375 -13.835938 15.265625 -13.140625 L 7.75 -4.15625 C 8.414062 -4.15625 9.046875 -4.289062 9.640625 -4.5625 C 10.242188 -4.84375 10.796875 -5.242188 11.296875 -5.765625 C 11.796875 -6.285156 12.242188 -6.890625 12.640625 -7.578125 Z M 12.71875 -6.828125 C 12.71875 -6.367188 12.390625 -5.851562 11.734375 -5.28125 C 11.085938 -4.71875 10.296875 -4.234375 9.359375 -3.828125 C 8.429688 -3.429688 7.597656 -3.234375 6.859375 -3.234375 C 6.578125 -3.234375 6.367188 -3.253906 6.234375 -3.296875 L 14.375 -13.046875 C 13.582031 -13.515625 12.707031 -13.882812 11.75 -14.15625 C 10.800781 -14.4375 9.832031 -14.578125 8.84375 -14.578125 C 7.6875 -14.578125 6.585938 -14.367188 5.546875 -13.953125 C 4.503906 -13.546875 3.554688 -12.878906 2.703125 -11.953125 C 2.285156 -11.515625 1.914062 -10.957031 1.59375 -10.28125 C 1.269531 -9.601562 1.007812 -8.851562 0.8125 -8.03125 C 0.625 -7.207031 0.53125 -6.394531 0.53125 -5.59375 C 0.53125 -3.84375 1 -2.515625 1.9375 -1.609375 C 3.070312 -0.515625 4.632812 0.03125 6.625 0.03125 C 7.8125 0.03125 9.023438 -0.148438 10.265625 -0.515625 C 11.503906 -0.890625 12.570312 -1.367188 13.46875 -1.953125 C 14.375 -2.546875 14.957031 -3.128906 15.21875 -3.703125 Z M 4.546875 -4.546875 C 4.285156 -4.703125 4.0625 -5.085938 3.875 -5.703125 C 3.6875 -6.316406 3.59375 -6.976562 3.59375 -7.6875 C 3.59375 -9.03125 3.910156 -10.0625 4.546875 -10.78125 C 4.828125 -11.09375 5.191406 -11.34375 5.640625 -11.53125 C 6.097656 -11.71875 6.601562 -11.8125 7.15625 -11.8125 C 8.082031 -11.8125 8.957031 -11.523438 9.78125 -10.953125 Z M 8.84375 -10.78125 C 8.394531 -11.007812 7.9375 -11.125 7.46875 -11.125 C 6.976562 -11.125 6.5 -11.019531 6.03125 -10.8125 C 5.570312 -10.613281 5.25 -10.378906 5.0625 -10.109375 C 4.488281 -9.367188 4.203125 -8.5625 4.203125 -7.6875 C 4.203125 -7.375 4.234375 -7.066406 4.296875 -6.765625 C 4.367188 -6.472656 4.484375 -6.070312 4.640625 -5.5625 Z M 8.84375 -10.78125 "/></g></g></g><g fill="#385ba9" fill-opacity="1"><g transform="translate(197.471936, 33.495114)"><g><path d="M 9.828125 -2.609375 L 6.515625 1.6875 L -0.5625 1.90625 L 6.296875 -7.15625 L -1.453125 -17.171875 L 6.0625 -16.84375 L 9.828125 -11.875 L 13.59375 -16.84375 L 21.109375 -17.171875 L 13.375 -7.15625 L 20.21875 1.90625 L 13.140625 1.6875 Z M 12.109375 -7.125 L 19.203125 -16.171875 L 14.375 -16.046875 L 9.828125 -10.109375 L 5.28125 -16.046875 L 0.453125 -16.171875 L 7.546875 -7.125 L 1.234375 1.125 L 5.734375 1.015625 L 9.828125 -4.203125 L 13.921875 1.015625 L 18.40625 1.125 Z M 12.109375 -7.125 "/></g></g></g></svg>